<svg width="14" height="14" viewBox="0 0 14 14" fill="none" xmlns="http://www.w3.org/2000/svg">
  <circle cx="7" cy="7" r="6.5" fill="black" stroke="#E5E5E5" stroke-width="0.5"/>
  <path d="M0 0.188341C0 0.372197 0.0089773 0.38565 0.215455 0.493274C0.372558 0.578475 0.439888 0.64574 0.480286 0.762332C0.520684 0.874439 0.53415 1.6278 0.53415 3.52018C0.538638 6.47982 0.552104 6.36771 0.188523 6.49776C0.00448866 6.56502 0 6.56951 0 6.78027V6.99552H1.79995L1.78648 6.78475L1.77302 6.57848L1.53063 6.50224C1.1087 6.36323 1.14461 6.61883 1.13563 3.66368C1.12665 1.07623 1.12665 1.05381 1.21194 1.21076C1.25682 1.29596 1.96154 2.6278 2.77399 4.1704L4.25524 6.97309L5.07218 7V3.92377C5.07218 0.439462 5.05871 0.600897 5.40434 0.470852C5.60633 0.394619 5.61082 0.38565 5.61082 0.197309V0H3.77047V0.390135L4.03081 0.461883C4.47519 0.58296 4.46621 0.551569 4.47968 1.8565C4.48865 2.47534 4.48865 3.12108 4.47968 3.29596L4.46621 3.60987L3.48319 1.80269L2.50018 0H0V0.188341Z" fill="white" transform="translate(2.8, 2.1) scale(1.4)"/>
</svg>
