<svg width="24" height="24" viewBox="0 0 24 24" fill="none" xmlns="http://www.w3.org/2000/svg">
<g clip-path="url(#clip0_2212_15835)">
<path d="M11.1704 0.958557C17.4641 0.519724 22.9219 5.26595 23.3609 11.5596C23.7999 17.8533 19.0538 23.3112 12.7601 23.7503C6.46628 24.1894 1.00817 19.4432 0.569172 13.1493C0.13018 6.85545 4.87656 1.39742 11.1704 0.958557Z" fill="black"/>
<path d="M11.5156 1.0561C17.758 0.806153 23.0195 5.66749 23.263 11.9101C23.5065 18.1528 18.6397 23.4092 12.3968 23.6462C6.16298 23.8829 0.915954 19.0248 0.672815 12.7913C0.429665 6.55774 5.28234 1.30568 11.5156 1.0561Z" fill="white"/>
<path d="M11.1533 1.34541C17.2301 0.896684 22.5208 5.45782 22.9719 11.5345C23.4231 17.6112 18.8641 22.9037 12.7877 23.3574C6.70767 23.8113 1.41145 19.2491 0.960004 13.1689C0.508531 7.08871 5.07289 1.79438 11.1533 1.34541Z" fill="black"/>
<path d="M7.20507 4.93697C8.92457 4.81653 9.26366 6.07158 8.84452 7.48811C8.90141 7.41316 8.95152 7.3248 9.00346 7.24555C9.52624 6.44797 10.2121 5.76636 11.0795 5.34544C12.4006 4.70439 14.2971 4.82053 14.983 6.31091C15.3423 7.09144 15.2307 7.93211 15.0968 8.7543C15.0253 9.15933 14.9765 9.49036 14.6943 9.81128C14.1845 10.3924 13.511 10.8817 13.0936 11.5352C13.0006 11.6809 12.8827 12.1029 12.8164 12.2885C13.6495 11.5833 14.773 11.2472 15.8373 11.6104C16.5474 11.8527 16.967 12.3923 17.3389 13.0108C16.9344 13.442 16.5137 13.7933 16.1177 14.2017C15.246 12.0442 13.0514 13.3821 13.3352 14.8441C13.3896 15.1395 13.5614 15.4003 13.8114 15.5669C14.3421 15.9187 15.0141 15.7009 15.4603 15.3209C15.7472 15.0767 15.991 14.8131 16.255 14.5463C16.7907 14.0039 17.321 13.4562 17.846 12.9033C18.4203 12.3041 19.1204 11.6414 19.615 10.9858C19.8554 10.6672 19.9438 10.1817 19.857 9.79664C19.8062 9.57105 19.5584 9.28747 19.3539 9.17314C18.0993 8.47194 17.0843 10.0776 16.334 10.831C16.2168 10.9486 16.0621 11.1755 15.9319 11.275C15.8913 11.306 15.5251 11.1416 15.4306 11.1205C14.9119 11.0046 14.4133 11.0544 13.9058 11.1651C14.1368 10.8458 14.4431 10.5302 14.7122 10.239C15.618 9.25878 16.3255 8.14161 17.5754 7.5708C18.8724 7.06169 20.4194 7.21914 21.2373 8.49786C21.8434 9.44547 21.7106 10.8976 21.0123 11.7728C19.8764 13.1941 18.5132 14.4381 17.2669 15.7602C16.2567 16.8319 15.1776 17.7405 13.5995 17.3375C13.0767 17.2082 12.6024 16.9306 12.2338 16.5379C11.1052 15.3369 11.5351 13.8882 11.7959 12.4003L12.3038 9.56647C12.4218 8.91103 12.7032 7.60414 11.8883 7.28086C10.5855 6.76408 9.40066 8.077 8.95477 9.16483C8.6551 9.89594 8.52243 10.6342 8.4113 11.4094C8.13393 12.8266 7.95696 14.2843 7.64396 15.6819L5.92366 15.6839C5.63379 15.6845 5.17927 15.6731 4.91016 15.7053C5.26032 13.8074 5.59091 11.9058 5.90188 10.0011C6.01057 9.35044 6.30693 8.004 6.27007 7.40414C5.99838 6.92291 5.45057 7.02394 4.96843 7.03172C5.14066 5.9388 6.16596 5.15186 7.20507 4.93697Z" fill="white"/>
<path d="M10.7591 14.2871C10.8325 14.355 10.9252 15.6111 11.2593 15.977C10.8635 16.3722 10.4594 16.7605 10.0675 17.1597C9.61424 17.6236 9.16182 18.1454 9.18205 18.8359C9.2011 19.4871 9.69016 19.9581 10.3427 19.9313C10.6138 19.9192 10.8777 19.8398 11.1104 19.7002C11.5462 19.4424 12.8549 18.0691 13.259 17.6274C13.8321 17.7803 14.7202 17.741 15.3127 17.6658C15.2542 17.7256 15.1991 17.7884 15.1464 17.8533C14.799 18.2809 14.4271 18.673 14.0426 19.0673C13.5872 19.5621 13.0934 20.0924 12.5997 20.542C11.8361 21.2372 11.0262 21.5748 9.9878 21.5093C9.24816 21.4627 8.60844 21.2169 8.1096 20.6475C7.62441 20.0936 7.46555 19.4429 7.51707 18.7243C7.61582 17.3469 8.56413 16.4987 9.47138 15.5774C9.88877 15.1535 10.3095 14.6789 10.7591 14.2871Z" fill="white"/>
<path d="M17.774 3.94531C17.906 4.0322 17.9079 4.35401 17.9641 4.45726C18.1322 4.76595 18.5424 4.86056 18.8427 4.96378C18.7325 4.99667 18.6246 5.03681 18.5197 5.08398C18.0779 5.28087 17.9672 5.54048 17.8075 5.95856C17.7326 5.90376 17.7551 5.9062 17.7355 5.81006C17.6302 5.2927 17.1682 5.08756 16.7109 4.93548C17.3747 4.83637 17.6621 4.6134 17.774 3.94531Z" fill="white"/>
<path d="M22.0318 2.13721C22.1162 2.20473 22.0704 2.1536 22.0961 2.26629C22.2425 2.90843 22.4335 3.2884 23.0758 3.53612C23.1849 3.57821 23.3851 3.62079 23.4594 3.67529C23.4257 3.7574 23.1383 3.85018 23.0467 3.8809C22.3874 4.10212 22.2052 4.72057 22.0297 5.3514C21.9611 5.30237 21.8796 4.95851 21.8476 4.85365C21.5717 3.95168 21.2276 4.00121 20.5595 3.66882L20.5532 3.62076C20.6659 3.54504 20.8596 3.61915 21.1916 3.42371C21.6941 3.12798 21.8847 2.69015 22.0318 2.13721Z" fill="black"/>
<path d="M22.0186 2.55322C22.1052 2.62164 22.2009 2.95869 22.2675 3.08497C22.4405 3.41311 22.867 3.5745 23.1922 3.69169L22.9848 3.78267C22.3032 4.08528 22.2801 4.27172 22.0209 4.94447C21.9595 4.87847 21.9336 4.65467 21.8888 4.54156C21.6838 4.02419 21.2832 3.84208 20.8188 3.62889C21.5293 3.50117 21.7945 3.22592 22.0186 2.55322Z" fill="white"/>
<path d="M19.3174 0.221436L19.3655 0.255066C19.461 1.06951 19.7809 1.45296 20.5604 1.69218L20.5688 1.74365C20.4318 1.87612 20.0228 1.89343 19.761 2.14193C19.5191 2.37143 19.3633 3.07707 19.2691 3.14074C19.0608 2.68921 19.0656 2.25046 18.5399 1.96349C18.423 1.89968 17.9976 1.73143 17.98 1.64196C18.143 1.58515 18.5174 1.48821 18.6498 1.39401C19.0354 1.11987 19.2178 0.655794 19.3174 0.221436Z" fill="black"/>
<path d="M19.3313 0.642578C19.364 0.684759 19.4025 0.828059 19.4242 0.889281C19.6304 1.47231 19.8233 1.55545 20.3989 1.70209C20.1328 1.80025 19.7278 1.91731 19.5727 2.16703C19.4818 2.31336 19.4209 2.60098 19.2751 2.72111C19.2561 2.65895 19.2351 2.59739 19.212 2.53661C19.0051 1.98609 18.6816 1.88948 18.188 1.66689C18.2665 1.64542 18.3448 1.62286 18.4227 1.59925C18.9869 1.42609 19.0827 1.11159 19.3313 0.642578Z" fill="white"/>
</g>
<defs>
<clipPath id="clip0_2212_15835">
<rect width="24" height="24" fill="white"/>
</clipPath>
</defs>
</svg>
