<svg width="33" height="11" viewBox="0 0 33 11" fill="none" xmlns="http://www.w3.org/2000/svg">
<path d="M11.6924 0.687596C10.226 1.0105 9.20254 2.26023 8.87935 4.11989C8.7776 4.7059 8.75964 6.24266 8.85541 6.8167C9.0589 8.10829 9.71727 9.22648 10.5791 9.77063C11.5727 10.3985 13.1288 10.3746 14.1104 9.71083C15.1817 8.9873 15.7623 7.80931 15.9119 6.06327C16.0436 4.52651 15.7683 3.0615 15.1578 2.11074C14.4276 0.968637 13.0211 0.394595 11.6924 0.687596ZM12.7936 1.48288C13.2186 1.7998 13.3802 2.63097 13.4341 4.81353C13.4879 7.02001 13.3682 8.65244 13.1049 9.13679C12.9852 9.36401 12.6859 9.50752 12.3328 9.50752C12.0455 9.50752 11.9856 9.48361 11.8121 9.3102C11.5906 9.08895 11.4589 8.71224 11.3692 8.04252C11.2734 7.31301 11.2315 4.98096 11.2973 3.7671C11.3871 2.16456 11.5368 1.63835 11.9617 1.41711C12.2131 1.28556 12.5722 1.31546 12.7936 1.48288Z" fill="white"/>
<path d="M19.9104 0.681751C19.3358 0.789384 19.0904 0.873098 18.6295 1.11228C17.63 1.63251 16.9118 2.61915 16.5826 3.93466C16.3911 4.69407 16.3911 6.31454 16.5826 7.07396C16.84 8.09647 17.3427 8.93959 18.0011 9.42992C18.45 9.76478 18.6654 9.87839 19.228 10.0518C19.6291 10.1774 19.7907 10.1953 20.6944 10.1953C21.676 10.1893 21.7298 10.1834 22.2805 9.99799C22.5977 9.89633 22.8969 9.77674 22.9508 9.73488C23.0346 9.66911 23.0645 9.45384 23.1124 8.47916C23.2022 6.82879 23.2261 6.98426 22.9269 7.00818L22.6815 7.02612L22.4301 7.63006C21.8316 9.08908 21.3049 9.62127 20.5448 9.54951C19.7547 9.47776 19.3837 9.02929 19.1323 7.83337C19.0066 7.24736 18.9467 4.19178 19.0425 3.38454C19.1682 2.30223 19.4734 1.65643 19.9642 1.4292C20.3114 1.27373 20.9877 1.27373 21.2211 1.4292C21.4904 1.60261 21.7837 2.05108 22.1967 2.91215L22.5797 3.70743H22.8191H23.0585V3.39052C23.0526 2.53543 22.9329 0.926915 22.867 0.891038C22.8251 0.867119 22.5678 0.801344 22.2865 0.747527C21.5623 0.615975 20.437 0.580098 19.9104 0.681751Z" fill="white"/>
<path d="M1.27637 1.02854C1.27637 1.27371 1.28834 1.29165 1.56365 1.43516C1.77314 1.54877 1.86291 1.63846 1.91678 1.79393C1.97065 1.94342 1.9886 2.948 1.9886 5.47139C1.99459 9.41794 2.01254 9.26845 1.52774 9.44186C1.28235 9.53155 1.27637 9.53753 1.27637 9.81857V10.1056H2.47938H3.67642L3.65846 9.82455L3.6405 9.54949L3.31731 9.44784C2.7547 9.26247 2.80258 9.60331 2.79061 5.66274C2.77864 2.21251 2.77864 2.18261 2.89236 2.39189C2.95221 2.50551 3.89188 4.28145 4.9752 6.33844L6.9503 10.0757L7.49495 10.0936L8.0396 10.1116V6.00956C8.0396 1.3634 8.02164 1.57867 8.4825 1.40526C8.75183 1.30361 8.75782 1.29165 8.75782 1.0405V0.777399H7.53086H6.3039V1.03452V1.29763L6.65104 1.3933C7.24357 1.55475 7.2316 1.51289 7.24956 3.25296C7.26153 4.07814 7.26153 4.93921 7.24956 5.17241L7.2316 5.59099L5.92085 3.1812L4.6101 0.777399H2.94024H1.27637V1.02854Z" fill="white"/>
<path d="M23.4497 1.0344C23.4497 1.28554 23.4617 1.30348 23.6951 1.40513C23.8328 1.47091 23.9644 1.57854 23.9944 1.66226C24.0243 1.73999 24.0482 3.42026 24.0482 5.42941C24.0482 8.23385 24.0303 9.09491 23.9704 9.20853C23.9285 9.29224 23.7968 9.40585 23.6712 9.46565C23.4617 9.56132 23.4497 9.58524 23.4497 9.83639V10.1055H25.335H27.2204V9.81247V9.52545L26.945 9.44771C26.4423 9.3042 26.4722 9.54936 26.4722 5.40549V1.74597L26.6159 1.5905C26.6996 1.50679 26.7954 1.43503 26.8373 1.43503C26.8792 1.43503 26.9869 1.40513 27.0707 1.36328C27.1964 1.30946 27.2204 1.25564 27.2204 1.0344V0.777274H25.335H23.4497V1.0344Z" fill="white"/>
<path d="M27.9976 1.0344C27.9976 1.28554 28.0096 1.2975 28.225 1.36328C28.3507 1.40513 28.5063 1.48885 28.5662 1.55462C28.8236 1.84165 28.6679 2.23032 27.4649 4.23947C27.0699 4.90919 26.7407 5.48921 26.7407 5.53107C26.7407 5.74035 27.83 8.65242 28.3208 9.75865L28.4764 10.1055H29.7333H30.9902V9.81845C30.9902 9.5673 30.9662 9.51947 30.8346 9.44173C30.7388 9.39389 30.5952 9.19059 30.4515 8.90955C29.8949 7.80332 28.5363 4.58629 28.5363 4.377C28.5363 4.28731 29.1707 3.13922 29.7094 2.27218C30.0505 1.71607 30.272 1.47689 30.5293 1.38122C30.673 1.3274 30.6909 1.28554 30.6909 1.04636V0.777274H29.3443H27.9976V1.0344Z" fill="white"/>
</svg>
