<svg xmlns="http://www.w3.org/2000/svg" width="18" height="20" viewBox="0 0 18 20" fill="none">
<path fill-rule="evenodd" clip-rule="evenodd" d="M16.7457 8.17244C16.7454 6.6092 16.2968 5.07884 15.4531 3.76279C14.6095 2.44675 13.4061 1.40021 11.9858 0.747246C10.5655 0.0942851 8.98768 -0.137713 7.4395 0.078756C5.89132 0.295225 4.43767 0.951083 3.2509 1.96857C2.06413 2.98607 1.194 4.32252 0.743666 5.81949C0.293337 7.31646 0.281696 8.91117 0.710122 10.4146C1.13855 11.9179 1.98907 13.267 3.16087 14.3017C4.33266 15.3364 5.77657 16.0134 7.32143 16.2524V17.4582H1.25C0.918479 17.4582 0.600537 17.5898 0.366117 17.8243C0.131696 18.0587 0 18.3766 0 18.7082C0 19.0397 0.131696 19.3576 0.366117 19.592C0.600537 19.8265 0.918479 19.9582 1.25 19.9582H15.8929C16.2244 19.9582 16.5423 19.8265 16.7767 19.592C17.0112 19.3576 17.1429 19.0397 17.1429 18.7082C17.1429 18.3766 17.0112 18.0587 16.7767 17.8243C16.5423 17.5898 16.2244 17.4582 15.8929 17.4582H9.82143V16.2524C11.7504 15.9546 13.509 14.9761 14.779 13.494C16.0491 12.012 16.7467 10.1242 16.7457 8.17244ZM10.74 2.16101C11.88 3.81529 12.55 5.52244 12.7057 7.27958H14.8986C14.7354 6.12945 14.2623 5.04541 13.53 4.1437C12.7976 3.24198 11.8336 2.55659 10.7414 2.16101M8.56571 2.24387C9.97143 3.95387 10.7286 5.63244 10.9114 7.27958H6.25429C6.41429 5.60672 7.16429 3.92958 8.56571 2.24244M10.8871 9.0653H6.30143C6.53571 10.6367 7.27286 12.291 8.58429 14.0382C9.92429 12.3153 10.67 10.6582 10.8871 9.0653ZM2.24429 7.27958H4.46143C4.59714 5.50529 5.25571 3.80101 6.38143 2.16958C5.2941 2.56744 4.33507 3.25283 3.60651 4.15271C2.87795 5.05259 2.40716 6.13326 2.24429 7.27958ZM6.53429 14.2296C5.39714 12.511 4.70571 10.7867 4.5 9.0653H2.24429C2.41093 10.239 2.90028 11.3433 3.65776 12.2551C4.41524 13.167 5.41109 13.8505 6.53429 14.2296ZM12.6857 9.0653C12.4943 10.8039 11.8057 12.5196 10.6643 14.2096C11.7741 13.8234 12.7562 13.139 13.5028 12.2316C14.2495 11.3242 14.7319 10.2287 14.8971 9.0653H12.6857Z" fill="#71706D"/>
</svg>