<svg width="20" height="20" viewBox="0 0 20 20" fill="none" xmlns="http://www.w3.org/2000/svg">
<path d="M15.7209 2.76018L12.8958 5.58526C12.5718 5.90928 12.7946 6.45607 13.2502 6.45607H15.0627V13.4226C15.0627 14.4351 14.3843 15.3768 13.3819 15.5388C12.1162 15.7515 11.0125 14.7693 11.0125 13.5441V6.6282C11.0125 4.51193 9.46322 2.62855 7.35708 2.42604C6.79466 2.37094 6.22693 2.43414 5.6904 2.61158C5.15387 2.78903 4.66041 3.07678 4.24174 3.45635C3.82308 3.83591 3.48847 4.29889 3.25944 4.81551C3.03041 5.33213 2.91203 5.89096 2.91189 6.45607V13.5441H1.09939C0.643735 13.5441 0.420969 14.0908 0.744992 14.4047L3.57006 17.2298C3.77258 17.4323 4.08647 17.4323 4.28899 17.2298L7.11406 14.4047C7.18403 14.3334 7.23131 14.2429 7.24993 14.1447C7.26855 14.0465 7.25769 13.9449 7.2187 13.8529C7.17972 13.7608 7.11437 13.6824 7.03087 13.6274C6.94738 13.5725 6.84949 13.5435 6.74953 13.5441H4.93703V6.57758C4.93703 5.565 5.61545 4.62331 6.6179 4.4613C7.88361 4.24866 8.98731 5.23086 8.98731 6.45607V13.3719C8.98731 15.4882 10.5365 17.3716 12.6427 17.5741C15.0526 17.807 17.0879 15.9135 17.0879 13.5441V6.45607H18.9004C19.356 6.45607 19.5788 5.90928 19.2548 5.59538L16.4297 2.77031C16.2373 2.5678 15.9133 2.5678 15.7209 2.76018Z" fill="black"/>
</svg>
