<svg width="20" height="20" viewBox="0 0 20 20" fill="none" xmlns="http://www.w3.org/2000/svg">
<g clip-path="url(#clip0_3240_3816)">
<path d="M15.7211 2.76018L12.8961 5.58526C12.5721 5.90928 12.7948 6.45607 13.2505 6.45607H15.063V13.4226C15.063 14.4351 14.3846 15.3768 13.3821 15.5388C12.1164 15.7515 11.0127 14.7693 11.0127 13.5441V6.6282C11.0127 4.51193 9.46347 2.62855 7.35732 2.42604C6.7949 2.37094 6.22718 2.43414 5.69065 2.61158C5.15412 2.78903 4.66065 3.07678 4.24199 3.45635C3.82332 3.83591 3.48872 4.29889 3.25969 4.81551C3.03066 5.33213 2.91227 5.89096 2.91214 6.45607V13.5441H1.09964C0.643979 13.5441 0.421214 14.0908 0.745236 14.4047L3.57031 17.2298C3.77282 17.4323 4.08672 17.4323 4.28923 17.2298L7.1143 14.4047C7.18427 14.3334 7.23155 14.2429 7.25017 14.1447C7.2688 14.0465 7.25793 13.9449 7.21895 13.8529C7.17997 13.7608 7.11461 13.6824 7.03112 13.6274C6.94763 13.5725 6.84973 13.5435 6.74978 13.5441H4.93728V6.57758C4.93728 5.565 5.6157 4.62331 6.61814 4.4613C7.88386 4.24866 8.98756 5.23086 8.98756 6.45607V13.3719C8.98756 15.4882 10.5368 17.3716 12.6429 17.5741C15.0529 17.807 17.0881 15.9135 17.0881 13.5441V6.45607H18.9006C19.3563 6.45607 19.579 5.90928 19.255 5.59538L16.4299 2.77031C16.2376 2.5678 15.9135 2.5678 15.7211 2.76018Z" fill="white"/>
</g>
<defs>
<clipPath id="clip0_3240_3816">
<rect width="20" height="20" fill="white"/>
</clipPath>
</defs>
</svg>
