<svg width="35" height="33" viewBox="0 0 35 33" fill="none" xmlns="http://www.w3.org/2000/svg">
<path d="M2.10586 8.20222H30.1089L30.2278 8.20564C31.2879 8.24542 32.2913 8.69442 33.0273 9.45836C33.7633 10.2223 34.1747 11.2417 34.175 12.3025V28.7065C34.175 29.7942 33.7429 30.8373 32.9738 31.6064C32.2048 32.3755 31.1617 32.8075 30.074 32.8075H4.101C3.01335 32.8075 1.97024 32.3755 1.20116 31.6064C0.432069 30.8373 0 29.7942 0 28.7065V12.3025L0.00205051 12.1624L0.00888551 12.0394C-0.0384907 11.2671 0.133199 10.4972 0.504186 9.8182C0.875174 9.13923 1.43037 8.57951 2.10586 8.20222ZM23.239 17.7705C22.5139 17.7705 21.8185 18.0586 21.3058 18.5713C20.793 19.084 20.505 19.7794 20.505 20.5045C20.505 21.2296 20.793 21.925 21.3058 22.4378C21.8185 22.9505 22.5139 23.2385 23.239 23.2385C23.9641 23.2385 24.6595 22.9505 25.1722 22.4378C25.685 21.925 25.973 21.2296 25.973 20.5045C25.973 19.7794 25.685 19.084 25.1722 18.5713C24.6595 18.0586 23.9641 17.7705 23.239 17.7705ZM29.9694 3.04111C30.0621 3.38663 30.1092 3.74279 30.1095 4.10053L30.1089 6.15103H7.8083L24.9471 0.139652C25.9976 -0.141748 27.117 0.00570426 28.0589 0.549572C29.0007 1.09344 29.688 1.98918 29.9694 3.03974" fill="#FFC413"/>
</svg>
